# xmcd CD database file
#
# Track frame offsets:
#	150
#	18210
#	27987
#	33022
#	54022
#	70125
#
# Disc length: 1000 seconds
#
# Revision: 1
# Processed by: cddbd v1.5.1PL0 Copyright (c) Steve Scherf et al.
# Submitted via: CDex 1.51
#
DISCID=3903e606
DTITLE=Wildi Gass - Trip Is Moor
DYEAR=1999
DGENRE=Jazz
TTITLE0=Rue Du Bac
TTITLE1=Trip Is Moor
TTITLE2=Nünerli
TTITLE3=Just A Roll
TTITLE4=Späde-Blues
TTITLE5=9 R Li
EXTD=YEAR: 1999
EXTT0=
EXTT1=
EXTT2=
EXTT3=
EXTT4=
EXTT5=
PLAYORDER=
